<?xml version="1.0" encoding="utf-8"?>
<!-- Generator: Adobe Illustrator 22.1.0, SVG Export Plug-In . SVG Version: 6.00 Build 0)  -->
<svg version="1.1" id="Layer_1" xmlns="http://www.w3.org/2000/svg" xmlns:xlink="http://www.w3.org/1999/xlink" x="0px" y="0px"
	 viewBox="0 0 400 120" style="enable-background:new 0 0 400 120;" xml:space="preserve">
<style type="text/css">
	.st0{fill:#202125;}
</style>
<g>
	<path class="st0" d="M325.5,53.3c5.2-0.2,10.9-0.3,16.4-0.5c4.8-0.1,8.2-1.6,9-6.1c0.5-2.7-1.1-4.4-4.2-4.6c0,0-9-0.5-19.2-0.9
		c0,0,2.1-11.4,3.1-16.1c0.5-2.3-0.7-4.5-3.6-5.3c-2.8-0.7-9.4-0.8-11.6-0.5c0,0,0,0,0,0c0,0-0.1,0-0.1,0c-1.8,0.2-3.6,1.3-4.1,3.2
		c-1.1,4.7-3.4,17.9-3.4,17.9c-3.8-0.1-7.4-0.2-10-0.1c-2.4,0.1-3.5,1.3-4.1,3.2c-0.5,2-0.9,4.8-1.1,7.7c-0.2,2.2,2.3,3.3,4.7,3.1
		c0,0,3.1-0.2,7.8-0.4c0,0,0,0,0,0l0,0c-0.9,0-0.8,0.1,0,0l0,0c0,0-0.1,0.8-0.4,2.1c-0.6,3.2-1.3,7.8-1.9,12.3
		c-0.4,2.9-0.8,5.8-1,7.9c-2.5,8.6-6.7,15.8-11.3,20.3c-3.1,3.1-6.5,4.8-9.6,4.8c-4.7,0-7.6-2.8-7.6-11.3c0-11.5,2.5-25.9,6.4-40.5
		c0.1-0.3,0.2-0.6,0.3-1c5.6-13.4,8.8-28.3,8.8-35.1c0-2.2-0.6-4.5-2.6-5.6c-0.3-0.3-0.7-0.4-1.2-0.6c-5.5-1.1-10.7-0.9-14.4,0.2
		c-3.3,1-3.9,4.4-4.4,6.3c-1.9,8.8-5,24.4-7.1,38.1c0,0.1,0,0.1,0,0.2c-4.8,5.8-10.3,9.8-16.3,10.9c-0.9-18.1-11.5-25.9-26-25.9
		c-25.5,0-41.8,22.7-41.8,48.2c0,20.7,11.2,29.3,27.7,29.3c19.3,0,33.8-13.8,39.2-38.9c5.5-1.2,10.2-3.7,14.3-7.5c0,0,0,0,0,0
		c-0.3,1.8-2.8,15.1-3,23.7c-0.1,0.3-0.1,0.6-0.1,1c0,13.9,6,21.7,20,21.7c8.3,0,15.8-4.2,21.7-10.2c2.3-2.4,4.4-5,6.2-7.8
		c0,0,0,0.1,0,0.1c1.7,12.9,8.4,18,19.4,18c10.1,0,19.7-6.4,26.6-17.9c1.4-2.3,2.4-4.3,1.5-5.3c-2-2.3-5.8-3.4-6.8-1.6
		c-4.5,8.3-9.4,11.6-14.7,11.6c-4.2,0-7.6-2.5-7.6-9.7C319.6,81.6,325.5,53.4,325.5,53.3C325.5,53.3,325.5,53.3,325.5,53.3z
		 M224,72.7c-2.6,16.9-10.1,31-18.2,31c-5.9,0-9.8-5.1-9.8-15.1c0-19.3,6.9-39.9,19.1-39.9c1.4,0,2.6,0.2,3.7,0.6
		c0.1,0,0.2,0.1,0.4,0.2c-0.9,2.7-1.2,5.5-1.4,8.3C217.6,62.4,218.3,68.2,224,72.7C224,72.7,224,72.7,224,72.7z"/>
	<path class="st0" d="M149.2,58.6c6.6-3.3,11.1-7.6,13.4-13.1C174,18.1,103.8-2.8,61.1,4.4C49.6,7,50.5,8.3,49.4,16.7
		c-0.5,3.7-0.4,3-0.4,4.6c-0.1,3.3,0.6,6,6.1,4.4c17.3-4.6,36.1-5.7,52.5-4.3c-0.6,6.8-1.5,12.8-4.5,33.5
		c-1.8,14.2-5.6,30.3-9.2,41.4c-8.3-1.2-16.5-3.1-23.5-4.8c-5-1.2-5,1.8-5.3,4.9c-0.4,4.6-0.3,8.8,0.8,13.3c0.9,2.6,3,3.5,6.5,3.8
		s15.3,5.1,39.6,3.2c25-1.3,53.3-7.2,57.7-31.6C171.6,74.1,162.8,65.3,149.2,58.6z M152.1,41.9c-0.9,5.3-12.8,5.3-27,4.9
		c1.3-7.8,2.4-14.9,3-20c0.1-0.6,0.2-1.3,0.2-2.1C143.4,28.6,153.3,34.8,152.1,41.9z M115.7,97.7c1.7-7.1,2.9-14.5,3.1-15.8
		c0,0,0,0,0,0l2.4-13.7c20.3,0.9,37.9,5.5,37.7,12.8C158.7,95,138.1,97.3,115.7,97.7z"/>
</g>
</svg>
